PathFileType	4	(X/Y/Z)	c:/Users/goper/Files/vsCode/490R/osim_files/C12/C12_Fast_01.trc
DataRate	CameraRate	NumFrames	NumMarkers	Units                	OrigDataRate	OrigDataStartFrame	OrigNumFrames
120.00	120.00	10	36	mm	120.0	787	1258
                Frame#	Time	LPSIS			LASIS			LTH1			LTH2			LTH3			LTH4			LLFE			LMFE			LSH1			LSH2			LSH3			LSH4			LLMAL			LMMAL			LCAL			LMTP5			LTOE			LMTP1			RPSIS			RASIS			RTH1			RTH2			RTH3			RTH4			RLFE			RMFE			RSH1			RSH2			RSH3			RSH4			RLMAL			RMMAL			RCAL			RMTP1			RTOE			RMTP5		
		X1	Y1	Z1	X2	Y2	Z2	X3	Y3	Z3	X4	Y4	Z4	X5	Y5	Z5	X6	Y6	Z6	X7	Y7	Z7	X8	Y8	Z8	X9	Y9	Z9	X10	Y10	Z10	X11	Y11	Z11	X12	Y12	Z12	X13	Y13	Z13	X14	Y14	Z14	X15	Y15	Z15	X16	Y16	Z16	X17	Y17	Z17	X18	Y18	Z18	X19	Y19	Z19	X20	Y20	Z20	X21	Y21	Z21	X22	Y22	Z22	X23	Y23	Z23	X24	Y24	Z24	X25	Y25	Z25	X26	Y26	Z26	X27	Y27	Z27	X28	Y28	Z28	X29	Y29	Z29	X30	Y30	Z30	X31	Y31	Z31	X32	Y32	Z32	X33	Y33	Z33	X34	Y34	Z34	X35	Y35	Z35	X36	Y36	Z36

787	6.55000	-4105.50928	1035.95288	390.91501	-4289.70020	1000.00647	423.31848	0.00000	0.00000	0.00000	-4288.46729	673.24207	478.33530	-4332.18555	735.78058	485.85416	-4343.16357	692.50696	480.69427	-4396.78564	529.28241	432.33774	0.00000	0.00000	0.00000	-4383.31934	419.42868	448.60043	-4408.31494	379.25046	454.83240	-4439.15039	447.93246	445.38611	-4456.14600	403.55441	449.81866	-4572.98877	130.21526	408.91055	0.00000	0.00000	0.00000	0.00000	0.00000	0.00000	0.00000	0.00000	0.00000	0.00000	0.00000	0.00000	-3959.06274	455.89868	175.91869	0.00000	0.00000	0.00000	-4265.29883	1009.86652	170.01404	-4082.34180	751.09399	138.14337	0.00000	0.00000	0.00000	-4141.40137	731.89972	137.55563	-4123.85107	688.96600	146.80472	0.00000	0.00000	0.00000	-4038.70947	537.34448	325.08252	0.00000	0.00000	0.00000	-3913.79932	425.37698	176.53813	-3985.09521	437.30887	186.58591	-3962.50513	402.09180	180.29807	-3819.63940	149.63113	238.18277	-3846.65991	158.42406	318.57700	-3741.89624	131.97577	278.53580	0.00000	0.00000	0.00000	-3992.04639	70.30674	286.96176	-3951.86523	48.12914	215.00697
788	6.55833	-4119.47412	1033.77734	391.63904	-4303.91504	997.84827	423.27759	0.00000	0.00000	0.00000	-4307.21045	672.59277	478.62756	-4349.76758	736.06427	485.47028	-4361.44971	692.98944	480.25449	-4414.68457	529.00684	430.01105	0.00000	0.00000	0.00000	-4399.75244	418.60934	446.63651	-4424.17236	378.17377	452.85040	-4455.92480	446.30960	442.75293	-4472.25439	401.60767	447.14633	-4582.81787	125.85550	406.07925	0.00000	0.00000	0.00000	0.00000	0.00000	0.00000	-4736.35303	143.78761	427.71405	-4755.95850	205.51282	366.97150	0.00000	0.00000	0.00000	0.00000	0.00000	0.00000	-4278.69434	1007.45642	169.92451	-4094.41138	749.24554	138.47583	0.00000	0.00000	0.00000	-4153.45703	729.80542	137.40218	-4135.93799	686.93915	146.50668	0.00000	0.00000	0.00000	-4051.08276	534.91052	324.62274	-3936.93506	467.72263	180.61296	-3923.34692	425.86691	176.06201	-4000.91699	446.51398	177.54433	0.00000	0.00000	0.00000	-3822.37500	152.16573	237.10854	-3849.67065	160.95654	317.77026	-3744.34106	136.43852	277.49924	0.00000	0.00000	0.00000	-3993.34595	69.74612	286.32352	-3952.06738	47.88372	214.81744
789	6.56667	-4133.97900	1031.88623	392.30270	-4318.51074	996.11426	423.19708	0.00000	0.00000	0.00000	-4326.43750	672.30530	478.67688	-4367.79199	736.49213	484.80731	-4380.12305	693.52557	479.59192	-4432.77051	528.92957	427.67191	0.00000	0.00000	0.00000	-4415.94287	418.01419	444.85599	-4439.88232	376.16986	452.69836	-4472.59766	444.45721	439.98251	-4487.88965	399.33197	444.37219	-4595.06641	120.57308	405.77643	0.00000	0.00000	0.00000	0.00000	0.00000	0.00000	0.00000	0.00000	0.00000	-4765.23242	196.27960	361.85513	0.00000	0.00000	0.00000	0.00000	0.00000	0.00000	-4292.35010	1005.16321	169.86093	-4106.80518	747.24609	138.80795	0.00000	0.00000	0.00000	-4165.91357	727.81665	137.28105	-4148.38867	684.90027	146.27235	0.00000	0.00000	0.00000	-4064.68579	533.43225	324.02078	-3947.67480	468.22586	180.08958	-3933.33008	426.68530	175.44571	0.00000	0.00000	0.00000	0.00000	0.00000	0.00000	-3825.54468	155.16867	236.08302	-3853.03296	163.63361	316.73358	-3747.22656	141.36722	276.46564	0.00000	0.00000	0.00000	-3992.42700	69.99349	288.04236	-3952.37646	47.61449	214.67766
790	6.57500	-4148.50537	1030.24866	392.69183	-4340.00635	996.48169	425.44543	0.00000	0.00000	0.00000	-4349.64697	672.91144	481.51053	-4386.13721	736.84937	483.93781	0.00000	0.00000	0.00000	-4450.67871	528.86267	425.21875	0.00000	0.00000	0.00000	-4431.70898	417.40903	443.22342	-4454.62207	374.87558	450.82883	-4487.57959	441.56839	435.23685	-4503.00928	396.73001	441.67502	-4602.01221	116.70152	403.73648	0.00000	0.00000	0.00000	0.00000	0.00000	0.00000	-4752.53516	125.14670	419.04868	-4773.63379	183.59662	355.11978	0.00000	0.00000	0.00000	0.00000	0.00000	0.00000	-4306.27783	1003.01825	169.83626	-4119.70703	745.54657	139.13095	0.00000	0.00000	0.00000	-4178.75879	725.90796	137.18684	-4161.19189	682.92120	146.04536	0.00000	0.00000	0.00000	-4078.28198	530.95837	323.34705	-3961.40503	467.16711	178.76950	-3943.92065	427.56473	174.89284	0.00000	0.00000	0.00000	0.00000	0.00000	0.00000	-3828.99487	158.45143	234.94868	-3856.88525	166.89709	315.76907	-3750.61157	147.15752	275.55716	-3936.75317	65.66241	322.51041	-3993.47363	69.42450	288.52139	-3952.68286	47.50546	214.65373
791	6.58333	-4163.22852	1028.96423	393.04779	-4355.18164	995.40454	425.51144	0.00000	0.00000	0.00000	-4365.20752	671.92633	477.83856	-4404.50879	737.14600	482.73840	0.00000	0.00000	0.00000	-4468.08301	528.64026	422.72116	0.00000	0.00000	0.00000	-4446.93213	416.76416	441.58469	-4468.67529	373.54581	449.03165	-4504.46094	439.73999	434.22943	-4517.40283	393.92230	438.82947	-4608.82715	113.19390	401.66330	-4616.59912	121.97910	320.33771	0.00000	0.00000	0.00000	-4760.57861	114.63794	414.54285	-4786.12402	170.25499	350.02029	0.00000	0.00000	0.00000	0.00000	0.00000	0.00000	-4320.52148	1000.97766	169.73949	-4132.85645	743.75916	139.62717	0.00000	0.00000	0.00000	-4191.92627	724.09821	137.06508	-4174.51221	681.15198	145.81039	0.00000	0.00000	0.00000	-4092.02148	527.54004	322.61050	-3972.50635	468.29745	178.94678	-3954.71753	428.98785	174.31090	0.00000	0.00000	0.00000	0.00000	0.00000	0.00000	-3833.22485	162.07176	233.75328	-3862.70898	168.95012	313.50342	-3754.60205	153.43102	274.61664	-3976.99951	112.06181	273.06787	-3992.11157	67.49795	287.03778	-3953.02905	47.42919	214.62750
792	6.59167	-4178.07471	1027.85986	393.35852	-4370.26025	994.57178	425.54910	-4403.93945	687.48041	495.53479	0.00000	0.00000	0.00000	-4422.56104	737.60156	481.23117	0.00000	0.00000	0.00000	-4484.58008	528.27246	420.45813	0.00000	0.00000	0.00000	-4461.43750	416.28918	439.86850	-4482.70117	373.46445	446.47800	-4519.43799	437.84225	431.50912	-4531.15674	391.59848	435.87131	-4617.50098	111.35593	400.22961	0.00000	0.00000	0.00000	0.00000	0.00000	0.00000	0.00000	0.00000	0.00000	-4799.56299	157.07742	346.09109	0.00000	0.00000	0.00000	0.00000	0.00000	0.00000	-4335.05420	999.15936	169.63281	-4146.39697	742.24432	140.27147	0.00000	0.00000	0.00000	-4205.55322	722.47241	136.92366	-4188.18115	679.41669	145.51883	0.00000	0.00000	0.00000	-4107.38672	525.84741	321.79337	-3985.14111	468.93729	178.35204	-3965.91089	430.24194	173.91876	0.00000	0.00000	0.00000	-4009.38965	401.21381	178.55164	-3838.02393	166.24371	232.36351	-3867.79321	172.50308	312.07620	-3759.38672	160.27620	273.69904	0.00000	0.00000	0.00000	-3990.00415	64.79763	284.83640	-3953.41064	47.38275	214.62610
793	6.60000	-4192.84912	1026.86938	393.80475	-4385.05908	994.03912	425.55042	-4420.86377	688.13538	493.97839	0.00000	0.00000	0.00000	-4439.90918	738.34241	479.50589	0.00000	0.00000	0.00000	-4499.90771	528.18384	419.10300	0.00000	0.00000	0.00000	-4475.70801	416.57498	437.85693	-4496.46729	373.38724	444.18878	-4533.89307	437.26904	429.43295	-4545.09473	390.92215	433.66443	-4626.11768	110.29053	399.44537	0.00000	0.00000	0.00000	0.00000	0.00000	0.00000	0.00000	0.00000	0.00000	-4809.43066	144.29073	343.34033	0.00000	0.00000	0.00000	0.00000	0.00000	0.00000	-4349.75879	997.52118	169.41429	-4160.72754	740.91034	140.61668	0.00000	0.00000	0.00000	-4219.67529	720.98218	136.78172	-4202.39648	677.86823	145.20309	0.00000	0.00000	0.00000	-4123.00635	523.40015	320.95126	-3998.40601	469.80640	177.79567	-3979.23926	431.07874	172.53746	0.00000	0.00000	0.00000	-4021.03247	401.09460	177.60025	-3843.72876	170.98611	230.80363	-3873.73584	176.49464	310.48257	-3764.95947	167.84502	272.60663	0.00000	0.00000	0.00000	0.00000	0.00000	0.00000	-3953.78076	47.30816	214.56776
794	6.60833	-4207.54590	1026.53284	394.29428	-4399.66162	993.85400	425.55142	0.00000	0.00000	0.00000	0.00000	0.00000	0.00000	-4456.30566	739.67316	477.69666	0.00000	0.00000	0.00000	-4514.27637	528.88776	419.48932	0.00000	0.00000	0.00000	0.00000	0.00000	0.00000	-4512.89209	376.52289	445.49377	-4548.68457	438.14355	428.12912	-4559.44141	391.67807	432.34589	-4632.34619	108.98428	399.22241	0.00000	0.00000	0.00000	0.00000	0.00000	0.00000	0.00000	0.00000	0.00000	-4816.60645	133.08983	342.51801	0.00000	0.00000	0.00000	0.00000	0.00000	0.00000	-4364.62891	996.25580	169.27135	-4175.62402	739.78418	141.10066	0.00000	0.00000	0.00000	-4234.41211	719.67407	136.69952	-4217.30664	676.51746	144.89706	0.00000	0.00000	0.00000	-4139.40723	521.23810	319.82574	-4012.49731	471.04373	177.02472	-3992.09961	432.91742	171.65952	0.00000	0.00000	0.00000	-4033.23608	401.20273	176.42001	-3849.90234	175.97321	229.03519	-3881.01245	181.46773	309.03986	-3771.71021	176.25357	271.50806	0.00000	0.00000	0.00000	-3899.02637	5.95746	267.01208	-3954.20581	47.19143	214.52048
795	6.61667	-4222.24756	1026.50500	395.01495	-4413.79736	993.97089	425.42816	-4419.44385	720.58740	485.02859	0.00000	0.00000	0.00000	-4471.68164	741.50293	476.07751	0.00000	0.00000	0.00000	-4528.36182	530.57953	420.73123	0.00000	0.00000	0.00000	-4505.77539	420.69138	436.36111	-4527.09961	378.97916	445.06027	-4563.83691	439.88821	427.09763	-4573.81689	393.24374	431.62384	-4637.04590	108.12521	399.56509	0.00000	0.00000	0.00000	-4648.24023	115.63064	318.99835	0.00000	0.00000	0.00000	-4823.17383	122.58053	343.39923	0.00000	0.00000	0.00000	0.00000	0.00000	0.00000	-4379.42627	995.36829	169.08192	-4190.87744	738.59180	141.59384	0.00000	0.00000	0.00000	-4249.80273	718.60675	136.63321	-4232.84277	675.32886	144.61722	0.00000	0.00000	0.00000	-4155.98291	517.84412	318.72571	-4027.17236	472.56259	176.13411	-4005.85205	435.16803	170.71558	0.00000	0.00000	0.00000	-4046.30273	401.62396	174.86021	-3857.09863	181.40392	227.07611	-3888.61646	185.02039	306.56696	-3779.74023	185.21951	270.53214	0.00000	0.00000	0.00000	0.00000	0.00000	0.00000	-3954.52515	47.15285	214.49384
796	6.62500	-4236.11279	1027.44568	395.40079	-4427.59766	994.61755	425.28781	0.00000	0.00000	0.00000	-4452.39160	680.99176	476.48990	-4486.12744	743.68164	474.77939	-4499.14746	701.04486	469.44370	-4543.25488	533.65491	421.42432	0.00000	0.00000	0.00000	-4521.00049	424.54260	436.99146	-4539.58301	381.37891	443.33432	-4579.13965	442.12799	426.44708	-4588.01465	395.25491	431.29352	-4641.70996	108.15828	401.20746	0.00000	0.00000	0.00000	-4652.24414	115.15134	319.84619	0.00000	0.00000	0.00000	-4828.32617	113.95426	345.05710	0.00000	0.00000	0.00000	0.00000	0.00000	0.00000	-4394.13037	994.97913	169.03188	-4206.51025	738.57635	142.70137	0.00000	0.00000	0.00000	-4265.86328	717.73187	136.51794	-4249.14453	674.31482	144.30168	0.00000	0.00000	0.00000	-4174.29834	516.52655	316.96545	-4042.54834	474.37936	175.10283	-4020.35718	437.43674	169.35126	0.00000	0.00000	0.00000	-4060.18823	402.38403	172.76990	-3865.47217	187.22624	225.04724	-3897.89844	189.39659	304.20093	-3789.18823	195.08775	269.49359	0.00000	0.00000	0.00000	-3901.18652	6.40899	266.02203	-3954.99194	47.21473	214.41487
